<mxfile host="app.diagrams.net" modified="2021-02-08T04:33:31.239Z" agent="5.0 (Windows NT 10.0; Win64; x64) AppleWebKit/537.36 (KHTML, like Gecko) Chrome/88.0.4324.146 Safari/537.36" etag="ED4UZbs1Ye8_YfhVElSE" version="14.2.9" type="github">
  <diagram id="Gld3rzswMyd5aAxi19bs" name="Page-1">
    <mxGraphModel dx="1038" dy="532" grid="1" gridSize="10" guides="1" tooltips="1" connect="1" arrows="1" fold="1" page="1" pageScale="1" pageWidth="2500" pageHeight="2500" math="0" shadow="0">
      <root>
        <mxCell id="0" />
        <mxCell id="1" parent="0" />
        <mxCell id="n7mazJ4Uz4ms8yec7FG8-48" style="edgeStyle=orthogonalEdgeStyle;rounded=0;orthogonalLoop=1;jettySize=auto;html=1;" parent="1" source="n7mazJ4Uz4ms8yec7FG8-2" target="n7mazJ4Uz4ms8yec7FG8-3" edge="1">
          <mxGeometry relative="1" as="geometry" />
        </mxCell>
        <mxCell id="n7mazJ4Uz4ms8yec7FG8-49" style="edgeStyle=orthogonalEdgeStyle;rounded=0;orthogonalLoop=1;jettySize=auto;html=1;" parent="1" source="n7mazJ4Uz4ms8yec7FG8-2" target="n7mazJ4Uz4ms8yec7FG8-5" edge="1">
          <mxGeometry relative="1" as="geometry" />
        </mxCell>
        <mxCell id="n7mazJ4Uz4ms8yec7FG8-2" value="&lt;div class=&quot;csl-bib-body&quot; style=&quot;line-height: 2 ; margin-left: 2em ; text-indent: -2em&quot;&gt;&lt;br/&gt;  &lt;div class=&quot;csl-entry&quot;&gt;Chesnais, J.-C. (1992). &lt;i&gt;The Demographic Transition, stages, patterns, and economic implications: A longitudinal study of sixty-seven countries covering the period 1720-1984&lt;/i&gt; (C. Gayet, Trad.). Oxford University.&lt;/div&gt;&lt;br/&gt;  &lt;span class=&quot;Z3988&quot; title=&quot;url_ver=Z39.88-2004&amp;amp;ctx_ver=Z39.88-2004&amp;amp;rfr_id=info%3Asid%2Fzotero.org%3A2&amp;amp;rft_val_fmt=info%3Aofi%2Ffmt%3Akev%3Amtx%3Abook&amp;amp;rft.genre=book&amp;amp;rft.btitle=The%20Demographic%20Transition%2C%20stages%2C%20patterns%2C%20and%20economic%20implications%3A%20a%20longitudinal%20study%20of%20sixty-seven%20countries%20covering%20the%20period%201720-1984&amp;amp;rft.place=Clarendon%2C%20Oxfor&amp;amp;rft.publisher=Oxford%20University&amp;amp;rft.aufirst=Jean-Claude&amp;amp;rft.aulast=Chesnais&amp;amp;rft.au=Jean-Claude%20Chesnais&amp;amp;rft.au=Cecilia%20Gayet&amp;amp;rft.date=1992&amp;amp;rft.tpages=p.%201%20-%2025%20y%20p.%2026%20-%2027%20-%2046&quot;&gt;&lt;/span&gt;&lt;/div&gt;" style="rounded=0;whiteSpace=wrap;html=1;" parent="1" vertex="1">
          <mxGeometry x="710" y="30" width="750" height="60" as="geometry" />
        </mxCell>
        <mxCell id="n7mazJ4Uz4ms8yec7FG8-47" value="" style="edgeStyle=orthogonalEdgeStyle;rounded=0;orthogonalLoop=1;jettySize=auto;html=1;" parent="1" source="n7mazJ4Uz4ms8yec7FG8-3" target="n7mazJ4Uz4ms8yec7FG8-7" edge="1">
          <mxGeometry relative="1" as="geometry" />
        </mxCell>
        <mxCell id="RCoYnLWqZGoY9V-9FqED-14" style="edgeStyle=orthogonalEdgeStyle;rounded=0;orthogonalLoop=1;jettySize=auto;html=1;" edge="1" parent="1" source="n7mazJ4Uz4ms8yec7FG8-3" target="RCoYnLWqZGoY9V-9FqED-13">
          <mxGeometry relative="1" as="geometry" />
        </mxCell>
        <mxCell id="n7mazJ4Uz4ms8yec7FG8-3" value="Introducción. La teoría de la transición demográfica: su concisión, diversidad y flexibilidad" style="rounded=0;whiteSpace=wrap;html=1;" parent="1" vertex="1">
          <mxGeometry x="333.75" y="140" width="330" height="60" as="geometry" />
        </mxCell>
        <mxCell id="n7mazJ4Uz4ms8yec7FG8-5" value="" style="rounded=0;whiteSpace=wrap;html=1;" parent="1" vertex="1">
          <mxGeometry x="1780" y="130" width="330" height="60" as="geometry" />
        </mxCell>
        <mxCell id="n7mazJ4Uz4ms8yec7FG8-42" style="edgeStyle=orthogonalEdgeStyle;rounded=0;orthogonalLoop=1;jettySize=auto;html=1;entryX=0.5;entryY=0;entryDx=0;entryDy=0;" parent="1" source="n7mazJ4Uz4ms8yec7FG8-7" target="n7mazJ4Uz4ms8yec7FG8-8" edge="1">
          <mxGeometry relative="1" as="geometry" />
        </mxCell>
        <mxCell id="n7mazJ4Uz4ms8yec7FG8-43" style="edgeStyle=orthogonalEdgeStyle;rounded=0;orthogonalLoop=1;jettySize=auto;html=1;" parent="1" source="n7mazJ4Uz4ms8yec7FG8-7" target="n7mazJ4Uz4ms8yec7FG8-9" edge="1">
          <mxGeometry relative="1" as="geometry" />
        </mxCell>
        <mxCell id="n7mazJ4Uz4ms8yec7FG8-44" style="edgeStyle=orthogonalEdgeStyle;rounded=0;orthogonalLoop=1;jettySize=auto;html=1;entryX=0.5;entryY=0;entryDx=0;entryDy=0;" parent="1" source="n7mazJ4Uz4ms8yec7FG8-7" target="n7mazJ4Uz4ms8yec7FG8-10" edge="1">
          <mxGeometry relative="1" as="geometry" />
        </mxCell>
        <mxCell id="n7mazJ4Uz4ms8yec7FG8-45" style="edgeStyle=orthogonalEdgeStyle;rounded=0;orthogonalLoop=1;jettySize=auto;html=1;" parent="1" source="n7mazJ4Uz4ms8yec7FG8-7" target="n7mazJ4Uz4ms8yec7FG8-11" edge="1">
          <mxGeometry relative="1" as="geometry" />
        </mxCell>
        <mxCell id="n7mazJ4Uz4ms8yec7FG8-46" style="edgeStyle=orthogonalEdgeStyle;rounded=0;orthogonalLoop=1;jettySize=auto;html=1;entryX=0.5;entryY=0;entryDx=0;entryDy=0;" parent="1" source="n7mazJ4Uz4ms8yec7FG8-7" target="n7mazJ4Uz4ms8yec7FG8-12" edge="1">
          <mxGeometry relative="1" as="geometry">
            <mxPoint x="960" y="440" as="targetPoint" />
          </mxGeometry>
        </mxCell>
        <mxCell id="n7mazJ4Uz4ms8yec7FG8-7" value="Las teorías en la demografía no son comunes, fuera de Malthus, solamente tenemos la teoría de la transición como cuerpo principal de pensamiento" style="ellipse;whiteSpace=wrap;html=1;" parent="1" vertex="1">
          <mxGeometry x="380" y="250" width="237.5" height="160" as="geometry" />
        </mxCell>
        <mxCell id="n7mazJ4Uz4ms8yec7FG8-15" value="" style="edgeStyle=orthogonalEdgeStyle;rounded=0;orthogonalLoop=1;jettySize=auto;html=1;" parent="1" source="n7mazJ4Uz4ms8yec7FG8-8" target="n7mazJ4Uz4ms8yec7FG8-13" edge="1">
          <mxGeometry relative="1" as="geometry" />
        </mxCell>
        <mxCell id="n7mazJ4Uz4ms8yec7FG8-8" value="Críticas severas, a veces injustificadas" style="rounded=1;whiteSpace=wrap;html=1;" parent="1" vertex="1">
          <mxGeometry x="80" y="450" width="120" height="60" as="geometry" />
        </mxCell>
        <mxCell id="n7mazJ4Uz4ms8yec7FG8-20" value="" style="edgeStyle=orthogonalEdgeStyle;rounded=0;orthogonalLoop=1;jettySize=auto;html=1;" parent="1" source="n7mazJ4Uz4ms8yec7FG8-9" target="n7mazJ4Uz4ms8yec7FG8-17" edge="1">
          <mxGeometry relative="1" as="geometry" />
        </mxCell>
        <mxCell id="n7mazJ4Uz4ms8yec7FG8-9" value="Los ingredientes principales" style="rounded=1;whiteSpace=wrap;html=1;" parent="1" vertex="1">
          <mxGeometry x="288" y="450" width="120" height="60" as="geometry" />
        </mxCell>
        <mxCell id="n7mazJ4Uz4ms8yec7FG8-30" value="" style="edgeStyle=orthogonalEdgeStyle;rounded=0;orthogonalLoop=1;jettySize=auto;html=1;" parent="1" source="n7mazJ4Uz4ms8yec7FG8-10" target="n7mazJ4Uz4ms8yec7FG8-28" edge="1">
          <mxGeometry relative="1" as="geometry" />
        </mxCell>
        <mxCell id="n7mazJ4Uz4ms8yec7FG8-10" value="Una falsa dicotomía" style="rounded=1;whiteSpace=wrap;html=1;" parent="1" vertex="1">
          <mxGeometry x="495" y="450" width="120" height="60" as="geometry" />
        </mxCell>
        <mxCell id="n7mazJ4Uz4ms8yec7FG8-39" style="edgeStyle=orthogonalEdgeStyle;rounded=0;orthogonalLoop=1;jettySize=auto;html=1;exitX=0.5;exitY=1;exitDx=0;exitDy=0;entryX=0.5;entryY=0;entryDx=0;entryDy=0;" parent="1" source="n7mazJ4Uz4ms8yec7FG8-11" target="n7mazJ4Uz4ms8yec7FG8-35" edge="1">
          <mxGeometry relative="1" as="geometry" />
        </mxCell>
        <mxCell id="n7mazJ4Uz4ms8yec7FG8-40" style="edgeStyle=orthogonalEdgeStyle;rounded=0;orthogonalLoop=1;jettySize=auto;html=1;entryX=0.147;entryY=0;entryDx=0;entryDy=0;entryPerimeter=0;" parent="1" target="n7mazJ4Uz4ms8yec7FG8-37" edge="1">
          <mxGeometry relative="1" as="geometry">
            <mxPoint x="763.0666666666666" y="505" as="sourcePoint" />
            <mxPoint x="880" y="575" as="targetPoint" />
            <Array as="points">
              <mxPoint x="763" y="545" />
              <mxPoint x="850" y="545" />
              <mxPoint x="850" y="575" />
              <mxPoint x="852" y="575" />
            </Array>
          </mxGeometry>
        </mxCell>
        <mxCell id="n7mazJ4Uz4ms8yec7FG8-41" style="edgeStyle=orthogonalEdgeStyle;rounded=0;orthogonalLoop=1;jettySize=auto;html=1;" parent="1" source="n7mazJ4Uz4ms8yec7FG8-11" target="n7mazJ4Uz4ms8yec7FG8-36" edge="1">
          <mxGeometry relative="1" as="geometry" />
        </mxCell>
        <mxCell id="n7mazJ4Uz4ms8yec7FG8-11" value="Algunas limitaciones reales" style="rounded=1;whiteSpace=wrap;html=1;" parent="1" vertex="1">
          <mxGeometry x="703" y="450" width="120" height="60" as="geometry" />
        </mxCell>
        <mxCell id="RCoYnLWqZGoY9V-9FqED-4" value="" style="edgeStyle=orthogonalEdgeStyle;rounded=0;orthogonalLoop=1;jettySize=auto;html=1;entryX=0.5;entryY=0;entryDx=0;entryDy=0;" edge="1" parent="1" source="n7mazJ4Uz4ms8yec7FG8-12" target="n7mazJ4Uz4ms8yec7FG8-50">
          <mxGeometry relative="1" as="geometry" />
        </mxCell>
        <mxCell id="n7mazJ4Uz4ms8yec7FG8-12" value="Un objetivo doble" style="rounded=1;whiteSpace=wrap;html=1;" parent="1" vertex="1">
          <mxGeometry x="1000" y="450" width="120" height="60" as="geometry" />
        </mxCell>
        <mxCell id="n7mazJ4Uz4ms8yec7FG8-13" value="Muchas veces las críticas a la teoría de transición son excesivamente duras, sin embargo a menudo malinterpretan los resultados o incluso ignoran los textos originales" style="shape=ext;double=1;whiteSpace=wrap;html=1;" parent="1" vertex="1">
          <mxGeometry x="90" y="570" width="100" height="200" as="geometry" />
        </mxCell>
        <mxCell id="n7mazJ4Uz4ms8yec7FG8-23" value="" style="edgeStyle=orthogonalEdgeStyle;rounded=0;orthogonalLoop=1;jettySize=auto;html=1;" parent="1" source="n7mazJ4Uz4ms8yec7FG8-14" target="n7mazJ4Uz4ms8yec7FG8-22" edge="1">
          <mxGeometry relative="1" as="geometry" />
        </mxCell>
        <mxCell id="n7mazJ4Uz4ms8yec7FG8-14" value="1. Evidencia: La transición demográfica existe. Es característica de la modernidad y se refiere al descenso en al fecundidad precedido por un descenso de la mortalidad." style="shape=ext;double=1;whiteSpace=wrap;html=1;" parent="1" vertex="1">
          <mxGeometry x="230" y="700" width="100" height="190" as="geometry" />
        </mxCell>
        <mxCell id="n7mazJ4Uz4ms8yec7FG8-19" value="" style="edgeStyle=orthogonalEdgeStyle;rounded=0;orthogonalLoop=1;jettySize=auto;html=1;" parent="1" source="n7mazJ4Uz4ms8yec7FG8-17" target="n7mazJ4Uz4ms8yec7FG8-14" edge="1">
          <mxGeometry relative="1" as="geometry" />
        </mxCell>
        <mxCell id="n7mazJ4Uz4ms8yec7FG8-17" value="&lt;p style=&quot;text-align: justify&quot;&gt;&lt;span style=&quot;font-size: 12px ; font-weight: normal ; line-height: 70%&quot;&gt;Sobre los textos originales&lt;/span&gt;&lt;/p&gt;" style="text;html=1;strokeColor=none;fillColor=none;spacing=5;spacingTop=-20;whiteSpace=wrap;overflow=hidden;rounded=0;" parent="1" vertex="1">
          <mxGeometry x="268" y="580" width="160" height="30" as="geometry" />
        </mxCell>
        <mxCell id="n7mazJ4Uz4ms8yec7FG8-22" value="Influencia de la mortalidad en la fecundidad" style="shape=ext;double=1;whiteSpace=wrap;html=1;" parent="1" vertex="1">
          <mxGeometry x="200" y="990" width="100" height="60" as="geometry" />
        </mxCell>
        <mxCell id="RCoYnLWqZGoY9V-9FqED-29" style="edgeStyle=orthogonalEdgeStyle;rounded=0;orthogonalLoop=1;jettySize=auto;html=1;entryX=0.5;entryY=1;entryDx=0;entryDy=0;" edge="1" parent="1" source="n7mazJ4Uz4ms8yec7FG8-24" target="n7mazJ4Uz4ms8yec7FG8-28">
          <mxGeometry relative="1" as="geometry" />
        </mxCell>
        <mxCell id="n7mazJ4Uz4ms8yec7FG8-24" value="Interpretación: La fecundidad es compleja de explicar pero el acuerdo es que es un ajuste a los cambios estructurales de la economía y la sociedad" style="shape=ext;double=1;whiteSpace=wrap;html=1;" parent="1" vertex="1">
          <mxGeometry x="360" y="700" width="110" height="190" as="geometry" />
        </mxCell>
        <mxCell id="n7mazJ4Uz4ms8yec7FG8-26" value="" style="endArrow=classic;html=1;exitX=0.5;exitY=1;exitDx=0;exitDy=0;entryX=0.393;entryY=-0.008;entryDx=0;entryDy=0;entryPerimeter=0;edgeStyle=elbowEdgeStyle;elbow=vertical;" parent="1" source="n7mazJ4Uz4ms8yec7FG8-17" target="n7mazJ4Uz4ms8yec7FG8-24" edge="1">
          <mxGeometry width="50" height="50" relative="1" as="geometry">
            <mxPoint x="408" y="680" as="sourcePoint" />
            <mxPoint x="500" y="790" as="targetPoint" />
          </mxGeometry>
        </mxCell>
        <mxCell id="n7mazJ4Uz4ms8yec7FG8-28" value="&lt;p style=&quot;text-align: justify&quot;&gt;&lt;span style=&quot;font-size: 12px ; font-weight: normal ; line-height: 70%&quot;&gt;No existe dicotomía entre el tema económico y el tema cultural mental.&lt;/span&gt;&lt;/p&gt;&lt;p style=&quot;text-align: justify&quot;&gt;Si bien es cierto que algunos estudios trataron variables económicas en oposición a las culturales.&lt;/p&gt;&lt;p style=&quot;text-align: justify&quot;&gt;&lt;br&gt;&lt;/p&gt;" style="text;html=1;strokeColor=none;fillColor=none;spacing=5;spacingTop=-20;whiteSpace=wrap;overflow=hidden;rounded=0;" parent="1" vertex="1">
          <mxGeometry x="490" y="550" width="130" height="160" as="geometry" />
        </mxCell>
        <mxCell id="n7mazJ4Uz4ms8yec7FG8-35" value="&lt;p style=&quot;text-align: justify&quot;&gt;La teoría de transición no toma en cuenta el papel regulador de la migración internacional.&lt;br&gt;&lt;/p&gt;" style="shape=ext;double=1;whiteSpace=wrap;html=1;" parent="1" vertex="1">
          <mxGeometry x="630" y="580" width="110" height="120" as="geometry" />
        </mxCell>
        <mxCell id="n7mazJ4Uz4ms8yec7FG8-36" value="&lt;span style=&quot;text-align: justify&quot;&gt;Tampoco da mucha cuenta de la nupcialidad&lt;/span&gt;" style="shape=ext;double=1;whiteSpace=wrap;html=1;" parent="1" vertex="1">
          <mxGeometry x="750" y="580" width="80" height="80" as="geometry" />
        </mxCell>
        <mxCell id="n7mazJ4Uz4ms8yec7FG8-37" value="&lt;span style=&quot;text-align: justify&quot;&gt;No habla de los mecanismos de difusión de los cambios demográficos de un país a otro&lt;br&gt;&lt;/span&gt;" style="shape=ext;double=1;whiteSpace=wrap;html=1;" parent="1" vertex="1">
          <mxGeometry x="840" y="580" width="80" height="140" as="geometry" />
        </mxCell>
        <mxCell id="RCoYnLWqZGoY9V-9FqED-5" style="edgeStyle=orthogonalEdgeStyle;rounded=0;orthogonalLoop=1;jettySize=auto;html=1;" edge="1" parent="1" source="n7mazJ4Uz4ms8yec7FG8-50" target="RCoYnLWqZGoY9V-9FqED-1">
          <mxGeometry relative="1" as="geometry" />
        </mxCell>
        <mxCell id="RCoYnLWqZGoY9V-9FqED-6" style="edgeStyle=orthogonalEdgeStyle;rounded=0;orthogonalLoop=1;jettySize=auto;html=1;entryX=0.25;entryY=0;entryDx=0;entryDy=0;" edge="1" parent="1" source="n7mazJ4Uz4ms8yec7FG8-50" target="RCoYnLWqZGoY9V-9FqED-2">
          <mxGeometry relative="1" as="geometry" />
        </mxCell>
        <mxCell id="RCoYnLWqZGoY9V-9FqED-7" style="edgeStyle=orthogonalEdgeStyle;rounded=0;orthogonalLoop=1;jettySize=auto;html=1;entryX=0.4;entryY=0.014;entryDx=0;entryDy=0;entryPerimeter=0;" edge="1" parent="1" source="n7mazJ4Uz4ms8yec7FG8-50" target="RCoYnLWqZGoY9V-9FqED-3">
          <mxGeometry relative="1" as="geometry">
            <Array as="points">
              <mxPoint x="1060" y="580" />
              <mxPoint x="1180" y="580" />
            </Array>
          </mxGeometry>
        </mxCell>
        <mxCell id="n7mazJ4Uz4ms8yec7FG8-50" value="&lt;p&gt;&lt;span style=&quot;font-size: 12px ; font-weight: normal ; line-height: 70%&quot;&gt;Tres proposiciones centrales&lt;/span&gt;&lt;/p&gt;" style="text;html=1;strokeColor=none;fillColor=none;spacing=5;spacingTop=-20;whiteSpace=wrap;overflow=hidden;rounded=0;align=center;" parent="1" vertex="1">
          <mxGeometry x="980" y="530" width="160" height="30" as="geometry" />
        </mxCell>
        <mxCell id="RCoYnLWqZGoY9V-9FqED-1" value="Secuencia cronológica: descenso mortalidad precedente a descenso de la fecundidad.&lt;br&gt;&lt;br&gt;&lt;span style=&quot;background-color: rgb(204 , 255 , 153)&quot;&gt;Comprobada&lt;/span&gt;.&amp;nbsp;" style="shape=ext;double=1;whiteSpace=wrap;html=1;" vertex="1" parent="1">
          <mxGeometry x="930" y="588" width="100" height="140" as="geometry" />
        </mxCell>
        <mxCell id="RCoYnLWqZGoY9V-9FqED-2" value="Transición reproductiva en dos fases:&lt;br&gt;&lt;br&gt;&lt;span&gt;1. restricción de matrimonios&lt;br&gt;&lt;/span&gt;&lt;br&gt;&lt;span&gt;2. limitación de nacimientos&lt;/span&gt;" style="shape=ext;double=1;whiteSpace=wrap;html=1;" vertex="1" parent="1">
          <mxGeometry x="1040" y="588" width="90" height="142" as="geometry" />
        </mxCell>
        <mxCell id="RCoYnLWqZGoY9V-9FqED-3" value="Deseo de menos hijos vinculado a la modernidad.&lt;br&gt;&lt;br&gt;&lt;span style=&quot;background-color: rgb(204 , 255 , 153)&quot;&gt;Comprobada&lt;/span&gt;.&amp;nbsp;" style="shape=ext;double=1;whiteSpace=wrap;html=1;" vertex="1" parent="1">
          <mxGeometry x="1140" y="588" width="90" height="102" as="geometry" />
        </mxCell>
        <mxCell id="RCoYnLWqZGoY9V-9FqED-16" value="" style="edgeStyle=orthogonalEdgeStyle;rounded=0;orthogonalLoop=1;jettySize=auto;html=1;" edge="1" parent="1" source="RCoYnLWqZGoY9V-9FqED-8" target="RCoYnLWqZGoY9V-9FqED-11">
          <mxGeometry relative="1" as="geometry" />
        </mxCell>
        <mxCell id="RCoYnLWqZGoY9V-9FqED-17" style="edgeStyle=orthogonalEdgeStyle;rounded=0;orthogonalLoop=1;jettySize=auto;html=1;entryX=0.5;entryY=0;entryDx=0;entryDy=0;" edge="1" parent="1" source="RCoYnLWqZGoY9V-9FqED-8" target="RCoYnLWqZGoY9V-9FqED-10">
          <mxGeometry relative="1" as="geometry" />
        </mxCell>
        <mxCell id="RCoYnLWqZGoY9V-9FqED-18" style="edgeStyle=orthogonalEdgeStyle;rounded=0;orthogonalLoop=1;jettySize=auto;html=1;entryX=0.5;entryY=0;entryDx=0;entryDy=0;" edge="1" parent="1" source="RCoYnLWqZGoY9V-9FqED-8" target="RCoYnLWqZGoY9V-9FqED-12">
          <mxGeometry relative="1" as="geometry" />
        </mxCell>
        <mxCell id="RCoYnLWqZGoY9V-9FqED-8" value="&lt;p style=&quot;text-align: justify&quot;&gt;&lt;span style=&quot;font-size: 12px ; font-weight: normal ; line-height: 70%&quot;&gt;Se puso mucho énfasis al estudio de condiciones previas y especial atención a los países en desarrollo sin haber terminado de bosquejar la transición de los países que van más avanzados en el proceso. es necesario retomar una visión holística del proceso de transición y no fragmentada.&lt;/span&gt;&lt;/p&gt;" style="text;html=1;strokeColor=none;fillColor=none;spacing=5;spacingTop=-20;whiteSpace=wrap;overflow=hidden;rounded=0;" vertex="1" parent="1">
          <mxGeometry x="1273.75" y="460" width="350" height="80" as="geometry" />
        </mxCell>
        <mxCell id="RCoYnLWqZGoY9V-9FqED-27" value="" style="edgeStyle=orthogonalEdgeStyle;rounded=0;orthogonalLoop=1;jettySize=auto;html=1;" edge="1" parent="1" source="RCoYnLWqZGoY9V-9FqED-10" target="RCoYnLWqZGoY9V-9FqED-19">
          <mxGeometry relative="1" as="geometry" />
        </mxCell>
        <mxCell id="RCoYnLWqZGoY9V-9FqED-32" style="edgeStyle=orthogonalEdgeStyle;rounded=0;orthogonalLoop=1;jettySize=auto;html=1;" edge="1" parent="1" source="RCoYnLWqZGoY9V-9FqED-10" target="RCoYnLWqZGoY9V-9FqED-31">
          <mxGeometry relative="1" as="geometry">
            <Array as="points">
              <mxPoint x="1310" y="740" />
              <mxPoint x="1150" y="740" />
            </Array>
          </mxGeometry>
        </mxCell>
        <mxCell id="RCoYnLWqZGoY9V-9FqED-34" style="edgeStyle=orthogonalEdgeStyle;rounded=0;orthogonalLoop=1;jettySize=auto;html=1;" edge="1" parent="1" source="RCoYnLWqZGoY9V-9FqED-10" target="RCoYnLWqZGoY9V-9FqED-33">
          <mxGeometry relative="1" as="geometry">
            <Array as="points">
              <mxPoint x="1310" y="740" />
              <mxPoint x="1040" y="740" />
            </Array>
          </mxGeometry>
        </mxCell>
        <mxCell id="RCoYnLWqZGoY9V-9FqED-10" value="Problemas" style="rounded=1;whiteSpace=wrap;html=1;" vertex="1" parent="1">
          <mxGeometry x="1250" y="588" width="120" height="60" as="geometry" />
        </mxCell>
        <mxCell id="RCoYnLWqZGoY9V-9FqED-11" value="Métodos" style="rounded=1;whiteSpace=wrap;html=1;" vertex="1" parent="1">
          <mxGeometry x="1388.75" y="588" width="120" height="60" as="geometry" />
        </mxCell>
        <mxCell id="RCoYnLWqZGoY9V-9FqED-12" value="Campo de la investigación" style="rounded=1;whiteSpace=wrap;html=1;" vertex="1" parent="1">
          <mxGeometry x="1530" y="588" width="120" height="60" as="geometry" />
        </mxCell>
        <mxCell id="RCoYnLWqZGoY9V-9FqED-15" value="" style="edgeStyle=orthogonalEdgeStyle;rounded=0;orthogonalLoop=1;jettySize=auto;html=1;" edge="1" parent="1" source="RCoYnLWqZGoY9V-9FqED-13" target="RCoYnLWqZGoY9V-9FqED-8">
          <mxGeometry relative="1" as="geometry" />
        </mxCell>
        <mxCell id="RCoYnLWqZGoY9V-9FqED-13" value="Problemas, métodos y el campo de la investigación de Chesnais" style="ellipse;whiteSpace=wrap;html=1;" vertex="1" parent="1">
          <mxGeometry x="1330" y="250" width="237.5" height="160" as="geometry" />
        </mxCell>
        <mxCell id="RCoYnLWqZGoY9V-9FqED-30" value="" style="group" vertex="1" connectable="0" parent="1">
          <mxGeometry x="1169" y="770" width="282" height="332" as="geometry" />
        </mxCell>
        <mxCell id="RCoYnLWqZGoY9V-9FqED-19" value="El análisis de la transición require una perspectiva dinámica, es decir, un abrodaje holístico que encare la transición dentro de un proceso histórico con otros varios componentes" style="shape=ext;double=1;whiteSpace=wrap;html=1;" vertex="1" parent="RCoYnLWqZGoY9V-9FqED-30">
          <mxGeometry x="91" width="100" height="190" as="geometry" />
        </mxCell>
        <mxCell id="RCoYnLWqZGoY9V-9FqED-20" value="&lt;p style=&quot;&quot;&gt;&lt;span style=&quot;font-size: 12px ; font-weight: normal ; line-height: 70%&quot;&gt;3 condiciones mínimas&lt;/span&gt;&lt;/p&gt;" style="text;html=1;strokeColor=none;fillColor=none;spacing=5;spacingTop=-20;whiteSpace=wrap;overflow=hidden;rounded=0;align=center;" vertex="1" parent="RCoYnLWqZGoY9V-9FqED-30">
          <mxGeometry x="71" y="220" width="140" height="30" as="geometry" />
        </mxCell>
        <mxCell id="RCoYnLWqZGoY9V-9FqED-21" value="Proposiciones teóricamente consistentes" style="shape=ext;double=1;whiteSpace=wrap;html=1;align=center;" vertex="1" parent="RCoYnLWqZGoY9V-9FqED-30">
          <mxGeometry y="280" width="82" height="52" as="geometry" />
        </mxCell>
        <mxCell id="RCoYnLWqZGoY9V-9FqED-26" style="edgeStyle=orthogonalEdgeStyle;rounded=0;orthogonalLoop=1;jettySize=auto;html=1;entryX=0.5;entryY=0;entryDx=0;entryDy=0;" edge="1" parent="RCoYnLWqZGoY9V-9FqED-30" source="RCoYnLWqZGoY9V-9FqED-19" target="RCoYnLWqZGoY9V-9FqED-21">
          <mxGeometry relative="1" as="geometry" />
        </mxCell>
        <mxCell id="RCoYnLWqZGoY9V-9FqED-22" value="Inserción en la larga duración" style="shape=ext;double=1;whiteSpace=wrap;html=1;align=center;" vertex="1" parent="RCoYnLWqZGoY9V-9FqED-30">
          <mxGeometry x="100.25" y="280" width="82" height="52" as="geometry" />
        </mxCell>
        <mxCell id="RCoYnLWqZGoY9V-9FqED-24" value="" style="edgeStyle=orthogonalEdgeStyle;rounded=0;orthogonalLoop=1;jettySize=auto;html=1;" edge="1" parent="RCoYnLWqZGoY9V-9FqED-30" source="RCoYnLWqZGoY9V-9FqED-19" target="RCoYnLWqZGoY9V-9FqED-22">
          <mxGeometry relative="1" as="geometry" />
        </mxCell>
        <mxCell id="RCoYnLWqZGoY9V-9FqED-23" value="Perspectiva dinámica" style="shape=ext;double=1;whiteSpace=wrap;html=1;align=center;" vertex="1" parent="RCoYnLWqZGoY9V-9FqED-30">
          <mxGeometry x="200" y="280" width="82" height="52" as="geometry" />
        </mxCell>
        <mxCell id="RCoYnLWqZGoY9V-9FqED-25" style="edgeStyle=orthogonalEdgeStyle;rounded=0;orthogonalLoop=1;jettySize=auto;html=1;" edge="1" parent="RCoYnLWqZGoY9V-9FqED-30" source="RCoYnLWqZGoY9V-9FqED-19" target="RCoYnLWqZGoY9V-9FqED-23">
          <mxGeometry relative="1" as="geometry" />
        </mxCell>
        <mxCell id="RCoYnLWqZGoY9V-9FqED-31" value="No centrarse solamente en el crecimiento natural sino en la &quot;revolución demográfica&quot; que en realidad representa la transición." style="shape=ext;double=1;whiteSpace=wrap;html=1;align=center;" vertex="1" parent="1">
          <mxGeometry x="1100" y="770" width="100" height="140" as="geometry" />
        </mxCell>
        <mxCell id="RCoYnLWqZGoY9V-9FqED-33" value="Se necesita una lectura cuidadosa de los datos de varios siglos de forma que no se den cuenta de falsas transiciones que respondan a hechos pasados que precedieron al gran movimiento moderno." style="shape=ext;double=1;whiteSpace=wrap;html=1;align=center;" vertex="1" parent="1">
          <mxGeometry x="990" y="770" width="100" height="210" as="geometry" />
        </mxCell>
      </root>
    </mxGraphModel>
  </diagram>
</mxfile>
